<svg width="25" height="25" viewBox="0 0 25 25" fill="none" xmlns="http://www.w3.org/2000/svg">
<mask id="mask0_31_10" style="mask-type:alpha" maskUnits="userSpaceOnUse" x="0" y="0" width="25" height="25">
<rect x="0.791687" y="0.932007" width="24" height="24" fill="#D9D9D9"/>
</mask>
<g mask="url(#mask0_31_10)">
<path d="M6.64169 18.032C7.49169 17.382 8.44169 16.8695 9.49169 16.4945C10.5417 16.1195 11.6417 15.932 12.7917 15.932C13.9417 15.932 15.0417 16.1195 16.0917 16.4945C17.1417 16.8695 18.0917 17.382 18.9417 18.032C19.525 17.3487 19.9792 16.5737 20.3042 15.707C20.6292 14.8403 20.7917 13.9153 20.7917 12.932C20.7917 10.7153 20.0125 8.82784 18.4542 7.26951C16.8959 5.71117 15.0084 4.93201 12.7917 4.93201C10.575 4.93201 8.68752 5.71117 7.12919 7.26951C5.57085 8.82784 4.79169 10.7153 4.79169 12.932C4.79169 13.9153 4.95419 14.8403 5.27919 15.707C5.60419 16.5737 6.05835 17.3487 6.64169 18.032ZM12.7917 13.932C11.8084 13.932 10.9792 13.5945 10.3042 12.9195C9.62919 12.2445 9.29169 11.4153 9.29169 10.432C9.29169 9.44867 9.62919 8.61951 10.3042 7.94451C10.9792 7.26951 11.8084 6.93201 12.7917 6.93201C13.775 6.93201 14.6042 7.26951 15.2792 7.94451C15.9542 8.61951 16.2917 9.44867 16.2917 10.432C16.2917 11.4153 15.9542 12.2445 15.2792 12.9195C14.6042 13.5945 13.775 13.932 12.7917 13.932ZM12.7917 22.932C11.4084 22.932 10.1084 22.6695 8.89169 22.1445C7.67502 21.6195 6.61669 20.907 5.71669 20.007C4.81669 19.107 4.10419 18.0487 3.57919 16.832C3.05419 15.6153 2.79169 14.3153 2.79169 12.932C2.79169 11.5487 3.05419 10.2487 3.57919 9.03201C4.10419 7.81534 4.81669 6.75701 5.71669 5.85701C6.61669 4.95701 7.67502 4.24451 8.89169 3.71951C10.1084 3.19451 11.4084 2.93201 12.7917 2.93201C14.175 2.93201 15.475 3.19451 16.6917 3.71951C17.9084 4.24451 18.9667 4.95701 19.8667 5.85701C20.7667 6.75701 21.4792 7.81534 22.0042 9.03201C22.5292 10.2487 22.7917 11.5487 22.7917 12.932C22.7917 14.3153 22.5292 15.6153 22.0042 16.832C21.4792 18.0487 20.7667 19.107 19.8667 20.007C18.9667 20.907 17.9084 21.6195 16.6917 22.1445C15.475 22.6695 14.175 22.932 12.7917 22.932ZM12.7917 20.932C13.675 20.932 14.5084 20.8028 15.2917 20.5445C16.075 20.2862 16.7917 19.9153 17.4417 19.432C16.7917 18.9487 16.075 18.5778 15.2917 18.3195C14.5084 18.0612 13.675 17.932 12.7917 17.932C11.9084 17.932 11.075 18.0612 10.2917 18.3195C9.50835 18.5778 8.79169 18.9487 8.14169 19.432C8.79169 19.9153 9.50835 20.2862 10.2917 20.5445C11.075 20.8028 11.9084 20.932 12.7917 20.932ZM12.7917 11.932C13.225 11.932 13.5834 11.7903 13.8667 11.507C14.15 11.2237 14.2917 10.8653 14.2917 10.432C14.2917 9.99867 14.15 9.64034 13.8667 9.35701C13.5834 9.07367 13.225 8.93201 12.7917 8.93201C12.3584 8.93201 12 9.07367 11.7167 9.35701C11.4334 9.64034 11.2917 9.99867 11.2917 10.432C11.2917 10.8653 11.4334 11.2237 11.7167 11.507C12 11.7903 12.3584 11.932 12.7917 11.932Z" fill="#333333"/>
</g>
</svg>
