<svg width="25" height="25" viewBox="0 0 25 25" fill="none" xmlns="http://www.w3.org/2000/svg">
<mask id="mask0_136_13" style="mask-type:alpha" maskUnits="userSpaceOnUse" x="0" y="0" width="25" height="25">
<rect x="0.328796" y="0.0187073" width="24" height="24" fill="#D9D9D9"/>
</mask>
<g mask="url(#mask0_136_13)">
<path d="M18.3288 15.7687C18.3288 17.502 17.7205 18.977 16.5038 20.1937C15.2871 21.4104 13.8121 22.0187 12.0788 22.0187C10.3455 22.0187 8.87046 21.4104 7.6538 20.1937C6.43713 18.977 5.8288 17.502 5.8288 15.7687V6.51871C5.8288 5.26871 6.2663 4.20621 7.1413 3.33121C8.0163 2.45621 9.0788 2.01871 10.3288 2.01871C11.5788 2.01871 12.6413 2.45621 13.5163 3.33121C14.3913 4.20621 14.8288 5.26871 14.8288 6.51871V15.2687C14.8288 16.0354 14.5621 16.6854 14.0288 17.2187C13.4955 17.752 12.8455 18.0187 12.0788 18.0187C11.3121 18.0187 10.6621 17.752 10.1288 17.2187C9.59546 16.6854 9.3288 16.0354 9.3288 15.2687V6.01871H11.3288V15.2687C11.3288 15.4854 11.3996 15.6645 11.5413 15.8062C11.683 15.9479 11.8621 16.0187 12.0788 16.0187C12.2955 16.0187 12.4746 15.9479 12.6163 15.8062C12.758 15.6645 12.8288 15.4854 12.8288 15.2687V6.51871C12.8121 5.81871 12.5663 5.22704 12.0913 4.74371C11.6163 4.26037 11.0288 4.01871 10.3288 4.01871C9.6288 4.01871 9.03713 4.26037 8.5538 4.74371C8.07046 5.22704 7.8288 5.81871 7.8288 6.51871V15.7687C7.81213 16.952 8.22046 17.9562 9.0538 18.7812C9.88713 19.6062 10.8955 20.0187 12.0788 20.0187C13.2455 20.0187 14.2371 19.6062 15.0538 18.7812C15.8705 17.9562 16.2955 16.952 16.3288 15.7687V6.01871H18.3288V15.7687Z" fill="#333333"/>
</g>
</svg>
