<svg width="25" height="25" viewBox="0 0 25 25" fill="none" xmlns="http://www.w3.org/2000/svg">
<mask id="mask0_41_7" style="mask-type:alpha" maskUnits="userSpaceOnUse" x="0" y="0" width="25" height="25">
<rect x="0.565186" y="0.227844" width="24" height="24" fill="#D9D9D9"/>
</mask>
<g mask="url(#mask0_41_7)">
<path d="M7.56519 21.2278C7.01519 21.2278 6.54435 21.032 6.15269 20.6403C5.76102 20.2487 5.56519 19.7778 5.56519 19.2278V6.22784H4.56519V4.22784H9.56519V3.22784H15.5652V4.22784H20.5652V6.22784H19.5652V19.2278C19.5652 19.7778 19.3694 20.2487 18.9777 20.6403C18.586 21.032 18.1152 21.2278 17.5652 21.2278H7.56519ZM17.5652 6.22784H7.56519V19.2278H17.5652V6.22784ZM9.56519 17.2278H11.5652V8.22784H9.56519V17.2278ZM13.5652 17.2278H15.5652V8.22784H13.5652V17.2278Z" fill="#FFFFFF"/>
</g>
</svg>
