<svg width="25" height="25" viewBox="0 0 25 25" fill="none" xmlns="http://www.w3.org/2000/svg">
<mask id="mask0_106_7" style="mask-type:alpha" maskUnits="userSpaceOnUse" x="0" y="0" width="25" height="25">
<rect x="0.100769" y="0.956146" width="24" height="24" fill="#D9D9D9"/>
</mask>
<g mask="url(#mask0_106_7)">
<path d="M19.7008 21.9561L13.4008 15.6561C12.9008 16.0561 12.3258 16.3728 11.6758 16.6061C11.0258 16.8395 10.3341 16.9561 9.60077 16.9561C7.7841 16.9561 6.2466 16.327 4.98827 15.0686C3.72994 13.8103 3.10077 12.2728 3.10077 10.4561C3.10077 8.63948 3.72994 7.10198 4.98827 5.84365C6.2466 4.58531 7.7841 3.95615 9.60077 3.95615C11.4174 3.95615 12.9549 4.58531 14.2133 5.84365C15.4716 7.10198 16.1008 8.63948 16.1008 10.4561C16.1008 11.1895 15.9841 11.8811 15.7508 12.5311C15.5174 13.1811 15.2008 13.7561 14.8008 14.2561L21.1008 20.5561L19.7008 21.9561ZM9.60077 14.9561C10.8508 14.9561 11.9133 14.5186 12.7883 13.6436C13.6633 12.7686 14.1008 11.7061 14.1008 10.4561C14.1008 9.20615 13.6633 8.14365 12.7883 7.26865C11.9133 6.39365 10.8508 5.95615 9.60077 5.95615C8.35077 5.95615 7.28827 6.39365 6.41327 7.26865C5.53827 8.14365 5.10077 9.20615 5.10077 10.4561C5.10077 11.7061 5.53827 12.7686 6.41327 13.6436C7.28827 14.5186 8.35077 14.9561 9.60077 14.9561Z" fill="#333333"/>
</g>
</svg>
