<svg width="25" height="25" viewBox="0 0 25 25" fill="none" xmlns="http://www.w3.org/2000/svg">
<mask id="mask0_95_13" style="mask-type:alpha" maskUnits="userSpaceOnUse" x="0" y="0" width="25" height="25">
<rect x="0.871155" y="0.751099" width="24" height="24" fill="#D9D9D9"/>
</mask>
<g mask="url(#mask0_95_13)">
<path d="M6.72115 12.7511L6.42115 11.2511C6.22115 11.1678 6.03365 11.0803 5.85865 10.9886C5.68365 10.8969 5.50449 10.7844 5.32115 10.6511L3.87115 11.1011L2.87115 9.4011L4.02115 8.4011C3.98782 8.18443 3.97115 7.96777 3.97115 7.7511C3.97115 7.53443 3.98782 7.31777 4.02115 7.1011L2.87115 6.1011L3.87115 4.4011L5.32115 4.8511C5.50449 4.71777 5.68365 4.60527 5.85865 4.5136C6.03365 4.42193 6.22115 4.33443 6.42115 4.2511L6.72115 2.7511H8.72115L9.02115 4.2511C9.22115 4.33443 9.40865 4.42193 9.58365 4.5136C9.75866 4.60527 9.93782 4.71777 10.1212 4.8511L11.5712 4.4011L12.5712 6.1011L11.4212 7.1011C11.4545 7.31777 11.4712 7.53443 11.4712 7.7511C11.4712 7.96777 11.4545 8.18443 11.4212 8.4011L12.5712 9.4011L11.5712 11.1011L10.1212 10.6511C9.93782 10.7844 9.75866 10.8969 9.58365 10.9886C9.40865 11.0803 9.22115 11.1678 9.02115 11.2511L8.72115 12.7511H6.72115ZM7.72115 9.7511C8.27115 9.7511 8.74199 9.55527 9.13366 9.1636C9.52532 8.77193 9.72115 8.3011 9.72115 7.7511C9.72115 7.2011 9.52532 6.73027 9.13366 6.3386C8.74199 5.94693 8.27115 5.7511 7.72115 5.7511C7.17115 5.7511 6.70032 5.94693 6.30865 6.3386C5.91699 6.73027 5.72115 7.2011 5.72115 7.7511C5.72115 8.3011 5.91699 8.77193 6.30865 9.1636C6.70032 9.55527 7.17115 9.7511 7.72115 9.7511ZM15.6712 23.7511L15.2212 21.6511C14.9378 21.5511 14.6753 21.4303 14.4337 21.2886C14.192 21.1469 13.9545 20.9844 13.7212 20.8011L11.7212 21.4511L10.3212 19.0511L11.9212 17.6511C11.8878 17.3511 11.8712 17.0511 11.8712 16.7511C11.8712 16.4511 11.8878 16.1511 11.9212 15.8511L10.3212 14.4511L11.7212 12.0511L13.7212 12.7011C13.9545 12.5178 14.192 12.3553 14.4337 12.2136C14.6753 12.0719 14.9378 11.9511 15.2212 11.8511L15.6712 9.7511H18.4712L18.9212 11.8511C19.2045 11.9511 19.467 12.0719 19.7087 12.2136C19.9503 12.3553 20.1878 12.5178 20.4212 12.7011L22.4212 12.0511L23.8212 14.4511L22.2212 15.8511C22.2545 16.1511 22.2712 16.4511 22.2712 16.7511C22.2712 17.0511 22.2545 17.3511 22.2212 17.6511L23.8212 19.0511L22.4212 21.4511L20.4212 20.8011C20.1878 20.9844 19.9503 21.1469 19.7087 21.2886C19.467 21.4303 19.2045 21.5511 18.9212 21.6511L18.4712 23.7511H15.6712ZM17.0712 19.7511C17.9045 19.7511 18.6128 19.4594 19.1962 18.8761C19.7795 18.2928 20.0712 17.5844 20.0712 16.7511C20.0712 15.9178 19.7795 15.2094 19.1962 14.6261C18.6128 14.0428 17.9045 13.7511 17.0712 13.7511C16.2378 13.7511 15.5295 14.0428 14.9462 14.6261C14.3628 15.2094 14.0712 15.9178 14.0712 16.7511C14.0712 17.5844 14.3628 18.2928 14.9462 18.8761C15.5295 19.4594 16.2378 19.7511 17.0712 19.7511Z" fill="#FFFFFF"/>
</g>
</svg>
